<?xml version="1.0" standalone="no"?>
<!DOCTYPE svg PUBLIC "-//W3C//DTD SVG 20010904//EN"
 "http://www.w3.org/TR/2001/REC-SVG-20010904/DTD/svg10.dtd">
<svg version="1.0" xmlns="http://www.w3.org/2000/svg"
 width="128.000000pt" height="128.000000pt" viewBox="0 0 128.000000 128.000000"
 preserveAspectRatio="xMidYMid meet">

<g transform="translate(0.000000,128.000000) scale(0.100000,-0.100000)"
fill="#000000" stroke="none">
<path d="M496 1024 c-84 -18 -173 -58 -253 -112 -68 -46 -199 -181 -228 -235
-19 -37 -19 -37 0 -74 29 -54 160 -189 228 -235 221 -150 468 -167 707 -51 83
41 108 60 195 147 55 56 109 118 120 139 19 37 19 37 0 75 -11 20 -65 82 -120
138 -87 87 -112 106 -195 147 -152 74 -300 94 -454 61z m324 -93 c36 -11 94
-37 130 -58 64 -38 191 -154 225 -205 17 -27 17 -29 0 -55 -34 -52 -161 -168
-225 -206 -269 -157 -598 -91 -809 163 -28 34 -51 65 -51 70 0 18 103 132 158
176 74 58 180 111 262 129 85 19 224 13 310 -14z"/>
<path d="M560 867 c-49 -16 -133 -102 -148 -153 -28 -94 -8 -169 63 -239 102
-103 243 -101 338 5 90 100 90 220 0 320 -65 72 -158 97 -253 67z m143 -81
c103 -43 128 -177 48 -257 -65 -65 -157 -65 -222 0 -124 123 13 325 174 257z"/>
</g>
</svg>
