<?xml version="1.0" standalone="no"?>
<!DOCTYPE svg PUBLIC "-//W3C//DTD SVG 20010904//EN"
 "http://www.w3.org/TR/2001/REC-SVG-20010904/DTD/svg10.dtd">
<svg version="1.0" xmlns="http://www.w3.org/2000/svg"
 width="512.000000pt" height="512.000000pt" viewBox="0 0 512.000000 512.000000"
 preserveAspectRatio="xMidYMid meet">

<g transform="translate(0.000000,512.000000) scale(0.100000,-0.100000)"
fill="#000000" stroke="none">
<path d="M2410 4970 c-1029 -66 -1904 -781 -2170 -1775 -98 -364 -106 -776
-24 -1144 137 -615 511 -1153 1044 -1504 278 -182 645 -319 995 -369 137 -20
503 -17 645 5 306 48 576 140 829 282 116 65 143 96 148 169 7 93 -61 166
-153 166 -32 0 -78 -19 -205 -83 -518 -263 -1069 -308 -1609 -131 -739 242
-1270 864 -1407 1649 -24 140 -24 509 0 650 54 311 159 576 332 835 316 474
797 786 1378 892 161 30 527 32 677 5 319 -59 580 -163 836 -336 504 -337 835
-889 904 -1506 30 -268 -7 -605 -94 -864 -57 -168 -103 -227 -216 -280 -46
-22 -69 -26 -140 -26 -71 1 -94 5 -141 28 -66 32 -141 107 -172 174 l-22 48
-5 942 c-5 931 -5 942 -26 969 -39 53 -71 69 -134 69 -63 0 -95 -16 -134 -69
-19 -25 -21 -44 -24 -192 l-3 -165 -77 73 c-178 170 -377 275 -622 329 -137
31 -370 33 -500 6 -399 -84 -719 -324 -897 -673 -106 -207 -138 -347 -138
-594 1 -156 4 -187 28 -283 62 -250 175 -448 354 -624 174 -171 391 -286 643
-340 119 -25 381 -25 500 1 253 55 456 164 643 345 53 52 98 92 100 90 2 -2
12 -24 22 -49 61 -144 180 -271 318 -338 191 -94 392 -94 587 0 68 32 101 57
166 122 95 95 138 169 187 316 95 286 135 563 123 855 -23 613 -252 1158 -669
1591 -489 509 -1177 778 -1877 734z m385 -1480 c183 -49 305 -120 440 -255
136 -137 206 -259 256 -445 30 -110 33 -337 6 -444 -47 -186 -125 -324 -262
-461 -179 -178 -373 -267 -620 -281 -288 -17 -560 93 -762 310 -106 114 -180
251 -225 416 -29 109 -32 334 -5 444 44 178 128 327 257 457 151 153 330 246
535 279 96 15 288 5 380 -20z"/>
</g>
</svg>
